<?xml version="1.0" encoding="UTF-8" standalone="no"?>
<!-- Generator: Adobe Illustrator 22.0.1, SVG Export Plug-In . SVG Version: 6.00 Build 0)  -->

<svg
   xmlns:dc="http://purl.org/dc/elements/1.1/"
   xmlns:cc="http://creativecommons.org/ns#"
   xmlns:rdf="http://www.w3.org/1999/02/22-rdf-syntax-ns#"
   xmlns:svg="http://www.w3.org/2000/svg"
   xmlns="http://www.w3.org/2000/svg"
   xmlns:xlink="http://www.w3.org/1999/xlink"
   xmlns:sodipodi="http://sodipodi.sourceforge.net/DTD/sodipodi-0.dtd"
   xmlns:inkscape="http://www.inkscape.org/namespaces/inkscape"
   version="1.1"
   id="Layer_1"
   x="0px"
   y="0px"
   width="1200"
   height="1200"
   viewBox="0 0 1200 1200"
   enable-background="new 0 0 842 1042.66"
   xml:space="preserve"
   sodipodi:docname="logo_flutter.svg.2020_01_10_18_46_56.0.svg"
   inkscape:export-filename="C:\Users\Matias de Andrea\Downloads\logo_flutter_brasil_v4.png"
   inkscape:export-xdpi="96"
   inkscape:export-ydpi="96"
   inkscape:version="0.92.4 (5da689c313, 2019-01-14)"><metadata
   id="metadata81"><rdf:RDF><cc:Work
       rdf:about=""><dc:format>image/svg+xml</dc:format><dc:type
         rdf:resource="http://purl.org/dc/dcmitype/StillImage" /><dc:title /></cc:Work></rdf:RDF></metadata><defs
   id="defs79"><clipPath
     id="gcut"><path
       inkscape:connector-curvature="0"
       id="path147"
       d="m -210.5,-78.754164 v -69.999996 h 63 v 69.999996 z m 31.5,-46.999996 v 12 h 31.5 v -12 z" /></clipPath><clipPath
     id="clipPath1877"><path
       inkscape:connector-curvature="0"
       id="path1875"
       d="m -31.5,0 v -70 h 63 V 0 Z M 0,-47 v 12 h 31.5 v -12 z" /></clipPath><clipPath
     id="SVGID_2_-9"><use
       id="use5-6"
       overflow="visible"
       xlink:href="#SVGID_1_-2"
       style="overflow:visible"
       x="0"
       y="0"
       width="100%"
       height="100%" /></clipPath><clipPath
     id="SVGID_11_-2"><use
       id="use56-1"
       overflow="visible"
       xlink:href="#SVGID_10_-4"
       style="overflow:visible"
       x="0"
       y="0"
       width="100%"
       height="100%" /></clipPath><path
     d="m 838.99,481.52 -278.64,278.63 278.64,278.7 v 0 H 520.53 L 401.09,919.41 v 0 L 241.84,760.15 520.54,481.51 H 838.99 Z M 520.53,3.81 3.01,521.33 162.27,680.59 838.99,3.81 Z"
     id="SVGID_1_-2"
     inkscape:connector-curvature="0" /><path
     d="m 838.99,481.52 -278.64,278.63 278.64,278.7 v 0 H 520.53 L 401.09,919.41 v 0 L 241.84,760.15 520.54,481.51 H 838.99 Z M 520.53,3.81 3.01,521.33 162.27,680.59 838.99,3.81 Z"
     id="SVGID_3_-3"
     inkscape:connector-curvature="0" /><path
     d="m 838.99,481.52 -278.64,278.63 278.64,278.7 v 0 H 520.53 L 401.09,919.41 v 0 L 241.84,760.15 520.54,481.51 H 838.99 Z M 520.53,3.81 3.01,521.33 162.27,680.59 838.99,3.81 Z"
     id="SVGID_5_-1"
     inkscape:connector-curvature="0" /><path
     d="m 838.99,481.52 -278.64,278.63 278.64,278.7 v 0 H 520.53 L 401.09,919.41 v 0 L 241.84,760.15 520.54,481.51 H 838.99 Z M 520.53,3.81 3.01,521.33 162.27,680.59 838.99,3.81 Z"
     id="SVGID_7_-9"
     inkscape:connector-curvature="0" /><path
     d="m 838.99,481.52 -278.64,278.63 278.64,278.7 v 0 H 520.53 L 401.09,919.41 v 0 L 241.84,760.15 520.54,481.51 H 838.99 Z M 520.53,3.81 3.01,521.33 162.27,680.59 838.99,3.81 Z"
     id="SVGID_10_-4"
     inkscape:connector-curvature="0" /></defs><sodipodi:namedview
   pagecolor="#ffffff"
   bordercolor="#666666"
   borderopacity="1"
   objecttolerance="10"
   gridtolerance="10"
   guidetolerance="10"
   inkscape:pageopacity="0"
   inkscape:pageshadow="2"
   inkscape:window-width="1920"
   inkscape:window-height="1057"
   id="namedview77"
   showgrid="false"
   inkscape:zoom="0.32009897"
   inkscape:cx="836.8232"
   inkscape:cy="408.41024"
   inkscape:window-x="1912"
   inkscape:window-y="-8"
   inkscape:window-maximized="1"
   inkscape:current-layer="g4779" />
<g
   id="g74"
   transform="translate(0,157.33997)">
	
	
		<radialGradient
   id="SVGID_12_"
   cx="6340.1523"
   cy="-687.52368"
   r="5065.2529"
   gradientTransform="matrix(0.25,0,0,-0.25,-1558.5,-97.5)"
   gradientUnits="userSpaceOnUse">
		<stop
   offset="0"
   style="stop-color:#FFFFFF;stop-opacity:0.1"
   id="stop67" />
		<stop
   offset="1"
   style="stop-color:#FFFFFF;stop-opacity:0"
   id="stop69" />
	</radialGradient>
	
<g
   id="g4779"
   transform="translate(179,-78.585806)"><rect
     style="fill:#ffffff;fill-opacity:1;stroke:none;stroke-opacity:1"
     id="rect4781"
     width="1200"
     height="1200"
     x="-179"
     y="-78.754166" /><path
     sodipodi:type="star"
     style="fill:#fedf00;fill-opacity:1;stroke:none;stroke-width:10;stroke-miterlimit:4;stroke-dasharray:none;stroke-opacity:1"
     id="path9099"
     sodipodi:sides="3"
     sodipodi:cx="865.20612"
     sodipodi:cy="762.05316"
     sodipodi:r1="272.79453"
     sodipodi:r2="136.39726"
     sodipodi:arg1="1.0471976"
     sodipodi:arg2="2.0943951"
     inkscape:flatsided="true"
     inkscape:rounded="0"
     inkscape:randomized="0"
     d="M 1001.6034,998.30016 592.41159,762.05315 1001.6034,525.80618 Z"
     inkscape:transform-center-x="36.666669"
     transform="matrix(0.53764518,0,0,0.94548878,299.67763,37.39955)"
     inkscape:transform-center-y="2.4334487e-05" /><path
     style="fill:#000000;fill-opacity:0"
     id="path72"
     d="m 838.99,481.52 -278.64,278.63 278.64,278.7 v 0 H 520.53 L 401.09,919.41 v 0 L 241.84,760.15 520.54,481.51 H 838.99 Z M 520.53,3.81 3.01,521.33 162.27,680.59 838.99,3.81 Z"
     inkscape:connector-curvature="0" /><path
     inkscape:connector-curvature="0"
     id="path4595"
     d="M 83.432829,601.51511 C 40.264553,558.34048 4.9450544,522.31467 4.9450544,521.45774 4.9450544,520.60082 121.1047,403.74165 263.0776,261.77068 L 521.21015,3.6416723 679.35657,4.0396668 837.50299,4.4376613 499.7118,342.22604 161.9206,680.01443 Z"
     style="fill:#009b3a;fill-opacity:1;stroke-width:1.56201696" /><path
     style="fill:#009b3a;fill-opacity:1;stroke:none;stroke-width:15.62016869;stroke-miterlimit:4;stroke-dasharray:none;stroke-opacity:1"
     d="M 501.11947,917.43913 422.58805,838.89616 561.46511,700.31878 700.34217,561.7414 h 157.17102 c 92.79024,0 157.17101,0.57931 157.17101,1.41424 0,0.77783 -61.96047,62.98441 -137.68994,138.23684 C 759.10895,818.5352 739.79803,836.6837 738.20895,838.28794 c -2.11172,-1.58358 -1.47201,-1.18896 0,0 -1.78426,1.58998 -12.6178,13.31789 -78.45112,79.16089 -43.18694,43.1933 -78.8784,78.53327 -79.31432,78.53327 -0.43593,0 -36.13175,-35.34433 -79.32404,-78.54297 z"
     id="path9089"
     inkscape:connector-curvature="0"
     transform="translate(-179,-78.754164)"
     sodipodi:nodetypes="scccsssccsss" /><path
     style="fill:#006727;fill-opacity:1;stroke:none;stroke-width:31.24033737;stroke-miterlimit:4;stroke-dasharray:none;stroke-opacity:1"
     d="M 460.78702,976.6304 401.4805,917.26223 480.34472,838.398 559.20895,759.53378 697.44137,897.76621 835.67385,1035.9986 H 677.88366 520.09354 Z"
     id="path9091"
     inkscape:connector-curvature="0" /><path
     style="fill:#002776;fill-opacity:1;stroke:none;stroke-width:12.5;stroke-miterlimit:4;stroke-dasharray:none;stroke-opacity:1"
     d="M 839.02378,633.20916 V 882.61538 A 125,125 0 0 1 720.96908,757.86158 125,125 0 0 1 839.02378,633.20916 Z"
     id="path9103-1"
     inkscape:connector-curvature="0" /></g></g>
</svg>